<svg xmlns="http://www.w3.org/2000/svg" viewBox="0 0 316.3 821.98"><defs><style>.a{fill:#e0e0e0;}</style></defs><path class="a" d="M480.51,843.06c-47.94,47-125.23,49.09-175.82-1.11-.34,3.08-.25,6.11-2.86,8.12s-5.62,1.65-8.58,1.65c-5.21,0-10.43.06-15.64,0-6-.08-8.57-2.52-8.63-8.36a4.74,4.74,0,0,0-2.52-4.62c-4.23-2.65-6.12-6.74-6.1-11.74q.18-70.38.39-140.77c0-9.39,4.6-16.16,13.1-20.13,10.53-4.91,21.18-9.58,30.69-16.42,22.19-16,31.31-38.36,31.51-64.9.27-37.69.22-75.38.32-113.07.07-31.28.1-62.57.31-93.85,0-3.57-.35-4.7-4.46-4.06-23.77,3.74-46.58,10.17-67.51,22.41a7.47,7.47,0,0,1-3.34,1.1c-7.59.2-15.19.52-22.74-.72-4.31-.7-6.33-2.73-6.3-7.49q.39-78.87.45-157.75c0-2.58.15-5,1.64-7.27.45-.68,1.48-1.67.52-2.28-3.33-2.14-2-5.35-2-8.15-.12-7.59,0-15.19,0-22.79,0-2.7,0-5.38,1.73-7.7.41-.57,1.22-1.36.46-1.91-3.55-2.59-2-6.3-2.09-9.52-.23-6.55,0-13.11,0-19.67,0-5.82.9-11.48.45-17.49-1.11-14.66-.23-29.46-.32-44.21,0-4.81,2.1-8.25,5.77-11,6.71-5,14.52-7.56,22.46-9.67C288.4,62.49,316.17,60,344,58.39c49.79-2.85,99.45-1.58,148.84,5.84,14,2.1,27.9,4.85,41,10.48a52.11,52.11,0,0,1,7.87,4.2c4.51,3,6.94,6.94,6.83,12.7-.28,14.59.61,29.26-.62,43.76-.44,5.13.23,9.87.32,14.8.14,7.74.17,15.49,0,23.23-.07,2.76,1.3,6.12-2.14,8.11a1.2,1.2,0,0,0-.16,1.12c4.44,7.39,1.49,15.47,2.18,23.2.31,3.55,1,7.51-.16,10.64-2,5.31.07,10.14.07,15.18q0,64.35-.24,128.7c0,9.69-.2,19.38,0,29.06.1,4.66-2,6.87-6.34,7.53-8.3,1.24-16.78,1.77-24.93.41-5.5-.92-10.56-4.59-15.78-7.1a195,195,0,0,0-53.65-16.5c-3.12-.5-3.56.34-3.57,3.22q-.15,103.45-.47,206.92c-.08,34.85,17.85,57.91,48,72.76,7.23,3.55,14.68,6.63,22,10,8.94,4.12,13.14,11.24,13.11,21q-.21,69.27-.34,138.54c0,6.06-2.05,10.8-7.5,13.65-1.64.86-1.88,1.9-2,3.51C516,850,513.79,852,507.11,852c-5.52,0-11,0-16.54,0C483.56,851.94,481.67,850.31,480.51,843.06ZM298.16,376.13l.51.59.73-.91c.22.87.82.54,1.34.41l19.68-5.08,1.84-.55,1.24-.25a19.3,19.3,0,0,0,6.89-1.19c2.11,0,4.18-.07,5.9-2l-6.13,1.11-7,1.23-1,.28-1.93.46a88.38,88.38,0,0,0-20.76,5.69.81.81,0,0,0-1.22.33l-1,.31.51.44ZM277.37,168.72c-.31-.17-.61-.47-.91-.48-.71,0-.23.57-.34.88l-.77-.55c0,.08,0,.22,0,.23a5.37,5.37,0,0,0,.74.19c.41-.13.82-.27,1.22-.43L278,168l-.35-.19Zm-7.19.27-1.17.66a1.78,1.78,0,0,0-.4.17c-.05,0-.06.15-.08.23.14-.18.29-.36.44-.53.78.62.92-.11,1.2-.55.27.18.54.49.82.5.68,0,.25-.53.35-.82.58.32,1,1.17,1.85.61.11-.07.14-.26.2-.39l-2-.17Zm22.29,37.23-1,.08c.07.13.12.34.22.37.49.15.74-.09.79-.58.54.39,1.15,1,1.19-.33.56,1.23,1.3.75,2,.21a2.07,2.07,0,0,0,2.48-.44l1.06-.07,0-.43-1.05.29c-.94-.19-2-.73-2.45.7-.59-1.1-1.29-.53-2-.14C293.18,205.6,292.74,205.59,292.47,206.22ZM275.21,210c-.52-.58-1-1.13-1.35.15-.27-.21-.4-1-.89-.2q.42,0,.84,0c.45,0,.91,0,1.35-.09l1.13-.56,1.95-.44c-.5.71-1.78-1.4-1.92.55l-1.1-.23Zm41.43,141.85,1.22-.36,1.23-.3,1.23-.29,1.22-.34,1.22-.33,10.17-2,.85-.24,7-1.18,12-1.84c.88,0,1.78,0,2.65,0,36.44-3.73,72.53-2.05,108.13,7.07.59.15,1.38.55,1.76-.63a13.6,13.6,0,0,0-1.64-.65A291.31,291.31,0,0,0,352.52,344a54.28,54.28,0,0,0-11.95,1.79,17.42,17.42,0,0,0-6.88,1.25l-1.25.24a42,42,0,0,0-10,2.16l-1.25.31-1.29.3-1.16.35-1.24.32-1.19.35-1.07.28c-2.47.72-5,1.11-7.27,2.55a.87.87,0,0,0-1.2.39l-1.85.47-1.2.51a2.91,2.91,0,0,0-2.32,1c-.56-.26-.91,0-1.19.47-.85-.06-1.66-.06-1.64,1.14-1.06-1-1.74.12-2.55.48-.77.12-1.53.28-1.59,1.29-.64-.87-.91-.19-1.23.28-1.16,0-2.07.18-1.65,1.67,0-1.43-.7-.75-1.28-.4a1.54,1.54,0,0,0-1.62,1.74c0-1.11-.75-.66-1.31-.62-.61.5-1.47.78-1.56,1.75l-.62-.32-.1.51.69-.33c1.11,0,1.51-.73,1.59-1.69.09,1,.77.64,1.32.6.61-.52,1.55-.75,1.6-1.77l1.31.48,1.61-1.73c.6.7.92.23,1.22-.3,1,.16,1.85.11,1.53-1.29,1.13,1.5,1.81.2,2.61-.41,1,.15,1.85.2,1.67-1.22.3,1.11.85.44,1.35.2a2.74,2.74,0,0,0,2.35-1,.83.83,0,0,0,1.21-.37L307,355l1.15-.39,7.23-2.41ZM270.48,209.49c-.17.82-.74.59-1.27.47a.87.87,0,0,1-1.21.35l-1.22.33-1.2.46-1.24.3-1.22.39-.17.11s.1-.18.11-.17c.4-.14.81-.28,1.22-.4s.84-.23,1.26-.33c.63.48.93.05,1.21-.42.61.59,1,.35,1.21-.34.6.56.91.14,1.22-.34.68.64.84-.31,1.28-.41l.5.72c.37-.36.3-.47-.22-.38C270.67,209.84,270.57,209.61,270.48,209.49Zm10.07,174.33c.21-.13.42-.26.62-.4a.88.88,0,0,0-.1-.21c-.17.25-.33.49-.5.72-.22-.78-.84-.49-1.34-.52-.66.54-1.44,1-1.53,2-.3-.67-.9-.44-1.42-.48a2.92,2.92,0,0,0-.24.37c-.12.22-1,.09-.31.68q.27-.57.54-1.11c.32.61.86.53,1.4.43.83-.41,1.54-.92,1.56-1.94C279.32,384.39,280,384,280.55,383.82Zm2.79-1.92,1.32.32.6-.82-.38-.06c-.09.33-.16.67-.22,1-.16-1.29-.74-.7-1.27-.28l-.76.16.34.4Zm12-4.15c-.71-1.16-.95-.3-1.25.29-1.06-.84-1.76-.09-2.46.58l-.92.42c.1.1.21.29.32.28.51,0,.66-.33.54-.81,1.12,1.06,1.77.08,2.48-.59.54.43.93.24,1.24-.29l1-.28-.51-.48Zm-6.6-212.38c.08,1.82,1.44.77,2.23,1,.74-.53,2.11.3,2.42-1.13.55.41,1.16,1,1.19-.35.55,1.28,1.3.76,2,.23.88.52,1.72,0,2.57-.11.49-.08,1.22.06.86-.83a5.84,5.84,0,0,0-1,.22c-.92,0-2.05-.66-2.44.85-.51-1.34-1.28-.54-2-.23-.51-.25-1-.29-1.22.34-1.06-.16-2.34-.82-2.46,1.08-.08-1.76-1.46-.59-2.15-.93l-1.06.7-1.1-.13c.06.23.09.65.18.66.46.07,1.18.36.89-.64.34.07.73.29,1,.2C289.46,166.05,288.74,165.69,288.76,165.37Zm1.09-40.6c.49,1.37,1.3.84,2.1.35.91.08,2,.65,2.43-.76l1.06.43.14-.74c.56,1.28,1.3.68,2,.2.83.58,1.65.07,2.48,0l2-.47a3.07,3.07,0,0,0,2.53-.2c.49,0,1.21.15.88-.77,0,0-.64.16-1,.24l-2.46.07-2,.49c-.94-.1-2-.74-2.44.8-.55-1.11-1.27-.68-2-.21a.78.78,0,0,0-1.23.32c-1-.2-2-.76-2.46.75-.48-1.25-1.29-.53-2-.32-.5-.16-.95-.16-1.18.43l-1.09-.18c0,.23.05.65.14.67.45.08,1.17.4.92-.62l1.12.32ZM277.58,367.94c1.27,1.43,1.45,0,1.88-.73,1.32.59,1.34-.53,1.66-1.24l.51.47.28-.46-.77.12c-.55.41-1.09.83-1.64,1.26-.62.22-1.24.44-1.85.7l-1.12,1.29c.23,0,.54.16.68.06A1.07,1.07,0,0,0,277.58,367.94Zm233-156.82a3.85,3.85,0,0,0,.7-.24c.14-.08.46.62.41-.1l-1.05.35-1.87-1-.08.22Zm-200.32-6.88c.86.34,2.34.21,2.23-.36-.3-1.53-1.57-.32-2.43-.37-.5.11-1.24,0-.86.89C309.27,204.49,309.92,204.3,310.29,204.24Zm-4.48.43a2.09,2.09,0,0,0,2.35-.26.41.41,0,0,0,0-.4c-.79-.61-1.58-.07-2.38,0l-1.95.44a4.26,4.26,0,0,0-4.28,1.37l4.27-.73C304.51,205.17,305.25,205.34,305.81,204.67Zm-3.47-40.3c1,.23,2.09.84,2.36-.85,1.43,1.7,3.08.24,4.62.32l3.2-.33,1.94-.38a21.82,21.82,0,0,0,7.67-.71,44.84,44.84,0,0,0,10.9-.85,21.31,21.31,0,0,0,2.64.13,827.81,827.81,0,0,1,110.7.25c12.54.89,25.06,2.16,37.59,3.25,1.11.89,2.37.82,4.58.43-2.08-.53-3.17-1.61-4.55-.31-1-1.49-2.67-1.1-4.05-1.28-48.93-6.32-98-7.13-147.15-3.45l-10.83,1-7.66.75-1.9.45a3.44,3.44,0,0,0-3.2.3,7.28,7.28,0,0,0-4.43.59,2.43,2.43,0,0,0-2.51.35l-1.08.23a2.36,2.36,0,0,0,.12.39C301.65,164.55,302,164.46,302.34,164.37ZM288.79,380.15c-.64-1-1.21,0-1.8.08-.07,0-.1.39-.15.6a2,2,0,0,0,1.9-.8l1-.33-.25-.35ZM313.37,121.9l-2.62.08c-1.4.28-3.1-.4-4.33,1.37,1.74,0,3.2.16,4.55-.58l2.51-.14,1.95-.31c.87.3,2.35.25,2.26-.38-.21-1.57-1.58-.35-2.44-.49Zm4.34,80.78c-1.44.13-3-.21-4.86,1.24,2.2.28,3.67.25,5.09-.44l2.61,0c2.78-.13,5.58,0,8.29-.84l2.57,0c.74,0,1.49,0,2.23,0a823.31,823.31,0,0,1,128.06,1.38c10.56,1,21.09,2.35,32.11,3.59-1.81-1.31-3.49-1.17-5.06-1.41-37.6-5.87-75.46-7.41-113.45-6.78-14.72.25-29.45.56-44.09,2.3l-2.59.08a31.26,31.26,0,0,0-8.29.88Zm5.17-82c-1.46.11-3-.21-4.16,1.59l4.38-.7a3.16,3.16,0,0,0,2.62-.08c1.18,0,2.37,0,3.56-.12,49.41-3.36,98.76-3,148,2.66,2.8.32,5.6.65,8.4,1s5.46.78,8.19,1.18a1.92,1.92,0,0,0-1.58-1.08c-36.22-6-72.74-7.67-109.36-7.41-19.19.13-38.38.57-57.47,2.9Zm174.32,5.44c2.84,2,6.19,1.54,9.41,1.7-3.12-.52-6.25-1-9.37-1.54l-1.57-.3c.13.2.23.48.41.58C496.57,126.84,497.11,127,497.2,126.15ZM371.49,610.93c-3.7-4.29-4.93-9.4-4.9-14.92,0-8.19,0-16.37.1-24.56.31-21.71-.76-43.46,1.24-65.14l1.17-.22c.17,13.09.53,26.19.39,39.28,0,4,1.66,5,4.92,5.1,5.14.15,9.6-1.83,13.79-4.54,5.68-3.68,7.95-6.21,9.06-10-7.95,5.28-12.23,6.86-16.24,6,14.58-7.45,19.86-20.13,19.84-35.64,0-12.52-.28-25-.48-37.54-.14-8.77-4.73-15.09-12.94-17.9a20.08,20.08,0,0,0-11-.26c-1.05.23-2.24.54-2.65-.75s1-1.18,1.64-1.67c7.88-6.08,16-5.2,24.71-.35-.42-12.19.54-24-1.1-35.6-1.11-7.83-6.17-12.71-14-14.48a34.56,34.56,0,0,0-12-.4c-6,.73-6,.72-5.93-5.22,0-.45,0-.9,0-1.34,0-8.2.06-16.39,0-24.59,0-1.1.87-2.87-1.46-3-2.57-.13-1.81,1.78-1.87,3.09-.09,2.08,0,4.17-.05,6.26L363.52,466q-.16,64.8-.35,129.61c0,7.32,2,13.83,7,19.25a26.23,26.23,0,0,0,29.1,6.66c10.27-4.06,16.55-13.55,16.59-25.25q.32-107,.59-214.06c0-5.07.06-10.13,0-15.2,0-1.23,1.05-3.24-1.56-3.34-3.06-.12-1.35,2.25-1.77,3.49a2.62,2.62,0,0,0-.07.89q-.24,109.49-.49,219c0,3.58.08,7.16-.07,10.73-.49,12.38-11.35,23-22.15,21.69.37-.64.59-1.59,1.15-1.89,8-4.28,10.82-11.32,10.73-19.92-.12-9.54-.56-19.08-.29-28.6.12-4.27-1.78-4.45-5-4.3-11.92.59-29.27,17.62-27,31.95.75,4.68,1.54,9.36,2.31,14.05A6.82,6.82,0,0,0,371.49,610.93Zm60-209.78q-1.86-19.54-3.71-39.11c-.07-.74,0-1.5-.16-2.22-.24-1.18.2-2.76-2-2.71s-2,1.32-2,2.69v4q-.29,116.39-.59,232.78c-.06,19.06-15.05,34.11-33.61,34-18.79-.07-33.57-14.95-33.61-34S356,558.19,356,539q.24-89.13.44-178.27c0-1.26,1.26-3.64-1.6-3.68s-1.37,2.36-1.78,3.67a5,5,0,0,0,0,1.34q-.27,105.47-.52,210.92c0,12.93-1.13,25.93,1.87,38.73,3.19,13.61,10.21,23.69,24.67,27.05,1.58.36,3.45.27,5.15,2.09a111.66,111.66,0,0,0-43,12.82c-13.26,7.11-24.29,17-34.84,28.86,0-6.58.12-12.21-.05-17.83-.08-2.51.82-4,2.89-5.37a83.18,83.18,0,0,0,23.42-23.64c10.41-16.07,14-34,14-52.8q.27-96.53.51-193c0-10,.06-20,0-29.94,0-1.05,1-2.84-1.41-2.95-2.61-.12-1.74,1.8-1.95,3.09a5.29,5.29,0,0,0,0,.89q-.12,42.89-.25,85.78c-.14,47.07.08,94.14-.57,141.2-.48,34.26-16.33,59.67-47,75.49-6.48,3.35-13.15,6.34-19.71,9.54-5.09,2.49-8.31,6.55-8.37,12.26-.21,21.15-.15,42.3-.27,63.45,0,1.92.53,2.56,2.49,2.5,4.17-.13,8.35-.19,12.51,0,3.06.17,4.22-.38,4.33-4,.74-24.35,8.56-46.3,24.62-64.7,30-34.41,67.68-46,111.66-34.13,40.39,10.88,70.27,47,75.49,88.78.59,4.74-1.48,11.52,1.95,13.72,3.59,2.3,9.8.35,14.85.59,2.76.13,3.07-1,3.07-3.33,0-20.41.1-40.82.14-61.22,0-6.07-2.6-10.65-8.16-13.29-4-1.91-8.17-3.63-12.26-5.43-14.15-6.21-27.57-13.57-38.74-24.48-17.91-17.48-24.19-39.24-24.06-63.71.39-73,.46-146,.58-219,0-1.31,1.23-3.67-1.48-3.77-3.23-.12-1.75,2.55-1.77,4-.24,13.25-.33,26.51-.46,39.76Zm108.74-12.69c.08-1.33.17-2.22.17-3.11.14-50.18.15-100.36.57-150.54,0-6.39-2.61-9.54-7.78-11.89-9.7-4.42-20-7-30.34-9-38.46-7.34-77.37-9.24-116.41-9.09-37.6.13-75.06,2.1-112,9.57-9.51,1.93-18.86,4.45-27.68,8.64-4.72,2.24-6.91,5.32-6.87,11.09.25,33.8,0,67.6-.09,101.4,0,16.38-.12,32.77-.06,49.15,0,1.08-1.43,4.13,1.76,3.14,8-2.49,16.25-3.14,22.46-10.95,10.47-13.16,25.56-20.49,41.31-25.46,55.87-17.62,112-17.65,168-.69,18.63,5.64,35.43,14.94,47.25,31.31a3.64,3.64,0,0,0,2.11,1.47C528.37,385.1,534.08,386.72,540.27,388.46ZM240.33,126.57c10.44-6,21.24-8.84,32.19-11.12,28.39-5.91,57.2-8.16,86.1-9.26,45.46-1.73,90.78-.22,135.79,6.86,16,2.52,31.77,5.74,46.69,13.72,0-11.61-.15-22.6.22-33.57.16-4.7-1.47-7.68-5.55-9.59-1.89-.88-3.73-1.87-5.65-2.66-10.4-4.26-21.3-6.68-32.31-8.56-45.7-7.8-91.77-9.09-138-7.53-30.55,1-61,3.46-90.87,10.38-8.28,1.92-16.49,4.17-23.9,8.54-2.29,1.35-4.66,2.73-4.65,6C240.41,101.82,240.36,113.85,240.33,126.57ZM479,800c27.2-45.73,11.49-107.21-34.37-134.5-47.31-28.15-108.36-13.12-136,33.49-28.4,47.8-13.34,108.46,33.91,136.61S450.45,848,479,800Zm6.28,3.48c-33.89,57.89-110.32,71.1-161.24,27.61-20.78-17.75-33-40.5-36.18-67.72-.51-4.29-1.87-5.48-5.91-5.07a71,71,0,0,1-10.72,0c-2.6-.14-3.53.45-3.52,3.37.09,21.44-.05,42.88-.07,64.33,0,5.8,2,7.69,7.88,7.71,9.23,0,18.46.12,27.69,0a8.55,8.55,0,0,1,7,2.9c12.68,13.26,27.57,23.44,45.12,28.85,45.89,14.16,86.4,4.77,120.93-29a7.92,7.92,0,0,1,6.21-2.57c9.53.17,19.06.13,28.59.09,5.06,0,7.44-2,7.48-6.8.15-22,.12-44.08.22-66.12,0-1.94-.58-2.53-2.53-2.48-4.61.13-9.23.19-13.84,0-2.52-.13-3.17.7-3.42,3.13A103.72,103.72,0,0,1,485.3,803.44ZM240.14,207.67a116.26,116.26,0,0,1,12.46-5.57c13.33-4.59,27.1-7.2,41-9.07a734.31,734.31,0,0,1,169.45-2.63c26.46,2.57,53,5.33,77.79,17.5,0-4.44-.45-8.79.22-13,1.12-7-2.51-10.33-8.22-12.91-12.5-5.64-25.77-8.31-39.15-10.49-43.53-7.09-87.39-8.38-131.37-7-32.22,1-64.31,3.44-95.79,11-7.55,1.82-15,4-21.74,8-2.1,1.25-4.59,2.41-4.6,5.53C240.18,195.22,240.15,201.31,240.14,207.67Zm300.45-40.59c.27-.46.41-.58.41-.71q0-6,0-12.06c0-8.58-1.16-10.13-9.19-13.53-14-5.93-28.76-8.7-43.64-10.89-44.65-6.58-89.56-7.61-134.56-5.76-27.13,1.12-54.15,3.46-80.75,9.22-9.63,2.09-19.2,4.43-27.84,9.44-2.18,1.26-4.65,2.51-4.72,5.48-.13,6.12-.07,12.26-.09,18.78,13.4-7.4,27.52-10.59,41.81-12.84,68.31-10.72,136.76-10.66,205.23-1.63C505.61,155,523.79,158.32,540.59,167.08ZM504.35,387.62c-18.9-10.54-38.93-17.67-60.57-19.78,10.17,2.5,20.55,4.29,30.55,7.53A206.09,206.09,0,0,1,504.35,387.62Zm-37.07-35.25c16.12,5.87,31.81,12.52,44.65,24.43C499.8,363.59,483.91,357.29,467.28,352.37ZM297.11,843.76c.27-1.6.25-2.78-1.82-2.75-5.65,0-11.3,0-16.94,0-1,0-2.13-.19-2.19,1.46s.8,1.86,2.21,1.85c5.5,0,11,0,16.5.08C295.71,844.41,296.65,844.65,297.11,843.76Zm212,0c.19-1.46.22-2.55-1.9-2.51-5.65.1-11.3,0-16.95,0-1.05,0-2.09,0-2.14,1.56-.06,1.75,1,1.82,2.26,1.82,5.5,0,11,.06,16.51.07C507.69,844.69,508.69,845,509.07,843.78Zm-20-677.54L510.9,170C503.71,168.27,496.57,166.24,489.06,166.24Zm6,40.93.09.85,8.29,1.34.1-.55ZM275.26,370.4c-.87.57-1.93.76-2.26,2.14C273.71,371.6,275.13,371.81,275.26,370.4Zm-4,3.44.08-.36a1.57,1.57,0,0,0-.31.18,1.33,1.33,0,0,0-.16.34ZM505.55,209.68l.79.2c0-.13-.07-.33-.16-.37a4,4,0,0,0-.79-.23C505.45,209.41,505.5,209.54,505.55,209.68ZM280,167.72l.19.15-.33.25Zm3.29,197.58c.13,0,.32,0,.37-.1s0-.26,0-.39c-.13,0-.32,0-.37.12S283.27,365.18,283.29,365.3Z" transform="translate(-232.33 -56.99)"/><path class="a" d="M321.07,313.83c-1.81,2.14-.78,4.7-.9,7-.35,6.54-.43,13.1-.55,19.65,0,1.73-.09,3-2.28,3.56a154.92,154.92,0,0,0-34.86,13.75c-.21.12-.57,0-1.09-.05l-1-88.29-.91,0c-.13,5.81-.27,11.62-.36,17.42-.35,21.9-.94,43.79-.86,65.68,0,6.29-1.59,10.46-8.25,12.81,4.11-6.15,3.13-12.72,3.16-19.13q.23-60.11.34-120.21c0-2.67.47-5.6-4.26-6.88A275.88,275.88,0,0,1,302,213.3c6.07-.78,12.17-1.23,18.22-2.08,2.62-.37,3.28.46,3.3,2.95.06,9.2.31,18.41.48,27.68,1.5-.4,1-1.59,1-2.45.28-8.49.68-17,.66-25.45,0-2.92,1.08-3.32,3.57-3.52,3.34-.27,2.31,2,2.31,3.47q-.1,61.66-.29,123.33c0,2.72-6.34,6.62-8.72,5.26-1.2-.69-.61-2.17-.67-3.28-.47-8.44.07-16.91-.93-25.33l-.15-1c-.11.09-.3.16-.33.27C320.34,313.66,320.55,313.9,321.07,313.83Zm-5.94,14-.33-.76-.25.54.74.15c-.31.35-.9.57-.55,1.21a.39.39,0,0,0,.24,0A11.3,11.3,0,0,0,315.13,327.84Zm6-16.2c-.08-.26-.09-.58-.25-.73s-.48-.1-.73-.14a4.23,4.23,0,0,0,.31,1C320.51,311.79,320.9,311.67,321.14,311.64ZM280.31,268c0-.13,0-.35-.09-.37a2.39,2.39,0,0,0-.6-.05c0,.13,0,.35.09.37A2.36,2.36,0,0,0,280.31,268Zm-.31-2.41c-.09.06-.24.1-.25.17-.06.42.12.53.46.28.06,0,.06-.21,0-.3S280.08,265.62,280,265.57Z" transform="translate(-232.33 -56.99)"/><path class="a" d="M367.59,311.34a45.31,45.31,0,0,1-17-61.3c12.68-22.37,40.11-30.17,62.1-17.65a45.47,45.47,0,1,1-45.13,78.95Zm13.63-76.82c-.29.64-.76.52-1.25.29.09.38-1.07.6-.13,1.08.05-.36.09-.73.13-1.09.26.2,0,1,.68.65.28-.15.38-.61.56-.93l.51.56.7-.84,2.18.62.1-.1-.14.05-2.13-.47C382.09,234.79,381.7,235,381.22,234.52Z" transform="translate(-232.33 -56.99)"/><path class="a" d="M475.24,324.72c-1.94,4.25-.83,8.76-1,13.13-.28,9.17-.14,9.19-8.88,6.81-1-.27-1.94-.69-2.9-1l-.15-.42c4.55-1.67,5.9-4.95,5.9-9.7q-.06-54.08.31-108.15c0-5.89-.52-11-6.83-13.88,7.47.91,14.92,1.89,22.4,2.68,3.08.33,2.32,2.48,2.34,4.28q.45,37.32.89,74.62c0,1.3-.41,2.7.72,4.3.91-3.93.47-7.59.53-11.21q.61-32.61,1.13-65.23c.1-5.93.07-5.93,5.93-4.83.84.15,1.66.41,3.43.85-4.83,2.36-4.82,6.16-4.83,10.11q-.08,58.31-.31,116.63c0,5.12,1.06,9.64,4.23,13.83-7.17-3.2-14.05-6.81-21.44-9.24-1.71-.56-1-2.29-1-3.54-.37-6.65.34-13.32-.59-20a8.16,8.16,0,0,0-.4-6.13C475.28,320.64,473.17,322.8,475.24,324.72Zm0-17.66-.19-.74-.29.42.64.26a1.59,1.59,0,0,0-.54,2.13c0,.26,0,.52,0,.78l.41-.35-.6-.38A1.9,1.9,0,0,0,475.22,307.06Zm13,4.42-.24-.75-.27.44.67.25c-1.35,1.17-.46,2.81-.84,4.17.22.1-.13,1,.57.42l-.73-.37C488.51,314.43,488.13,312.9,488.21,311.48Zm-13.3,4.83,0,1c.12-.06.33-.08.36-.17.18-.46,0-.71-.49-.79,1.25-1.23.31-2.82.67-4.18l-.73-.6c0,.13-.15.31-.1.4.25.43.6.42,1,.11C473.82,313.24,474.54,314.81,474.91,316.31Zm12.87-13.23c-.17.49-.83,1.12.36,1.2-1.2,1.55-.62,3.22.2,4.88-.11-1.61-.21-3.22-.32-4.83.18-.49.86-1.13-.36-1.2,1.35-1.63.77-3.31.14-5C487.59,299.79,487,301.43,487.78,303.08ZM487.71,318l.08.24L488,318Zm-12.53-13.76c-.14,0-.33,0-.39.12s0,.26,0,.4c.14,0,.33,0,.39-.12S475.19,304.37,475.18,304.23Zm.06-1.55-.12-.31-.2.27Z" transform="translate(-232.33 -56.99)"/><path class="a" d="M249.5,378.55a4.43,4.43,0,0,0-.12.88c.13,1.78-.09,3.48-2.34,3.4-2.42-.08-1.29-2.16-1.3-3.24,0-20.85,0-41.7.08-62.55.07-28,.3-56,.08-84,0-4.92,1.73-7.06,6-8.69,8.19-3.15,8.06-3.35,8,5.22q-.24,71.26-.4,142.52c0,4.08-1.06,7.14-5.14,8.8-2.8,1.14-3.67.05-3.75-2.53a245.22,245.22,0,0,0-.12-26.84c.32-2.09.79-4.2-.85-6.23l.06,6.46Q249.63,365.16,249.5,378.55Zm1-76.81c0,.26-.82.58.06.78l-.19-.75c-.17-.18.51-.88-.38-.6Q250.3,301.46,250.54,301.74Zm-.47-5.12a.85.85,0,0,1,.16.35c0,.43.1.47.29.09a5.34,5.34,0,0,0-.6-.41l.83-2.18c-.27-.68-.51-1.35.12-2l-.2,0,.25.13c0,.6,0,1.2-.1,1.81C250.56,295.16,250.31,295.89,250.07,296.62Zm-.27,21.76c.19.52.11,1.39,1.11.86-1.84,1.11-.83,2.84-.93,4.31l.51.77c.07-.12.22-.27.2-.37-.12-.5-.44-.57-.86-.32,1.8-1.11.51-2.91.94-4.31-.19-.53-.14-1.39-1.14-.84.86-.58,1.51-1.22.53-2.23,1-1.25.24-2.82.69-4.15l-.69-.64-.13.37.95.19c-1.36,1.22-1.22,2.68-.69,4.2C250.12,317,249.94,317.67,249.8,318.38Zm.75-11.38-.12-.73-.31.34.59.34c-.58.88-1.37,1.75-.06,2.7C250.62,308.76,250.59,307.88,250.55,307Zm-.09,32.1-.05-1.1c-.91.13-.61.73-.51,1.27a8.74,8.74,0,0,0,.46,5.58A9.83,9.83,0,0,0,250.46,339.1Zm0-7.19c.17-.49.86-1.14-.37-1.19,1.29-1.58.67-3.22.11-4.85-.08,1.6-.9,3.2,0,4.8-.23.51-.89,1.15.37,1.19-1.47,1.66-.76,3.33-.16,5C250.41,335.21,251.31,333.54,250.42,331.91Zm-.23-32.53.3-.18-.2-.15Zm.34,4.78c-.13,0-.32,0-.38.11s0,.26,0,.39c.13,0,.32,0,.37-.11S250.54,304.29,250.53,304.16Z" transform="translate(-232.33 -56.99)"/><path class="a" d="M518.27,221.73c4.56.46,8.6,2.27,12.71,3.93,2.39,1,1.68,2.87,1.68,4.53q-.06,42.18-.18,84.38c-.05,21.13-.22,42.26-.07,63.4,0,4.14-.93,4.51-4.65,3.43-3.38-1-5.8-2.48-7.61-5.51-1.25-2.08-3.19-3.76-4.87-5.68,5.6.15,5.61.15,5.63-5.9q.17-67.18.35-134.38C521.27,226.8,520.94,224,518.27,221.73Z" transform="translate(-232.33 -56.99)"/><path class="a" d="M382.29,335.12c-11.43.57-22.86,1.1-34.21,2.76-1.52.23-2.86.62-2.83-1.87.13-13.93.13-27.87.59-42,3.91,6,8,11.71,13.62,16.14s11.82,7.41,19.68,9.93c-3.34,1.44-4.26,3.29-4,5.82a9.52,9.52,0,0,0,3.7,6.85c1.13.9,2.91.86,3.52,2.48Z" transform="translate(-232.33 -56.99)"/><path class="a" d="M345.56,250.16c0-4.23,0-8.46,0-12.69,0-8.48.13-17,0-25.45,0-2.23.81-2.7,2.79-2.83,2.38-.17,2.21,1.2,2.22,2.78,0,4.73.13,9.45.49,14.24,1.85-4.15,1.82-8.7,2-13.08.19-3.52,1.49-4.37,4.78-4.37,8,0,16-.38,24.18-.26-4.62,2.66-7,6.3-6.7,11.62.11,2.21,1,3.26,4.29,3.81-8.23,2.37-14.6,5.42-20.21,10S349.63,244,345.56,250.16Z" transform="translate(-232.33 -56.99)"/><path class="a" d="M407.25,318.16c15.08-6.73,25.82-17.36,30.28-33.65,6.48-23.63-6.83-49.79-29.67-58.25-1.54-.57-3.12-1-4.26-2.32,19.25,1.87,37.26,21.83,39.1,43.31,2,23.79-13.21,46.22-35.46,52.13C407.24,319,407.25,318.57,407.25,318.16Z" transform="translate(-232.33 -56.99)"/><path class="a" d="M451.11,329.69A1005.2,1005.2,0,0,1,450.9,226C453.9,229.93,454.4,315.36,451.11,329.69Z" transform="translate(-232.33 -56.99)"/><path class="a" d="M517.75,244.78a989.37,989.37,0,0,1-.33,101.89Q515.08,295.71,517.75,244.78Z" transform="translate(-232.33 -56.99)"/><path class="a" d="M262.54,299q-.14-13.31-.26-26.61-.19-23.66-.36-47.31a22.1,22.1,0,0,1,.13-3.55c.13-.86,1-1,1.76-1s.86.66.88,1.26,0,1.48,0,2.23q-.45,36.36-.89,72.71c0,.71-.09,1.41-.14,2.12Z" transform="translate(-232.33 -56.99)"/><path class="a" d="M497.79,341.42a308.81,308.81,0,0,1,0-54.31C499.8,305.2,499.43,323.29,497.79,341.42Z" transform="translate(-232.33 -56.99)"/><path class="a" d="M334.68,261.08c-.13-10-.27-19.18-.37-28.34-.08-6.83-.11-13.66-.16-20.5,0-1-.37-2.14,1.28-2.26s1.47,1.12,1.45,2.08q-.4,23.82-.87,47.65C336,259.9,335.66,260.09,334.68,261.08Z" transform="translate(-232.33 -56.99)"/><path class="a" d="M458,272.25a359.89,359.89,0,0,1-.22,52.23A476.44,476.44,0,0,1,458,272.25Z" transform="translate(-232.33 -56.99)"/><path class="a" d="M334.76,272.47,334.62,261l1.42,0L336,272.47Z" transform="translate(-232.33 -56.99)"/><path class="a" d="M389.23,211c1.21,2.91,1.27,5.82,0,9.8C387.84,216.8,388,213.91,389.23,211Z" transform="translate(-232.33 -56.99)"/><path class="a" d="M389.05,332.75c-1.41-3.83-.9-6.66-.47-9.51C390.48,325.85,389.9,328.73,389.05,332.75Z" transform="translate(-232.33 -56.99)"/><path class="a" d="M262.89,305c-.71-1.67-.37-3.35-.19-6.37a8.06,8.06,0,0,1,.66,6.23Z" transform="translate(-232.33 -56.99)"/><path class="a" d="M263.35,312.14c-1.15-2.2-.64-3.55-.82-5.79C264.1,308.46,263.55,309.81,263.35,312.14Z" transform="translate(-232.33 -56.99)"/><path class="a" d="M517.19,240.75c.89,1.49.89,1.49.59,3.32C516.61,242.94,517.33,241.81,517.19,240.75Z" transform="translate(-232.33 -56.99)"/><path class="a" d="M335.27,278.66c-1-1.22-.44-2.55-.29-3.85l.6-.16c.46,1.4.73,2.79-.41,4Z" transform="translate(-232.33 -56.99)"/><path class="a" d="M262.73,321.88l.35-.21a3.61,3.61,0,0,1,.12.72c0,.07-.2.14-.31.21Z" transform="translate(-232.33 -56.99)"/><path class="a" d="M262.89,317.49a1.61,1.61,0,0,1,.39-2.09l-.12,0a1.39,1.39,0,0,1-.4,2.1Z" transform="translate(-232.33 -56.99)"/><path class="a" d="M382.36,335.25c-.29-.69.14-.68.59-.59a1.63,1.63,0,0,1,.38.22l-1,.23Z" transform="translate(-232.33 -56.99)"/><path class="a" d="M335.39,281.9c.65.46.47.94,0,1.38-.07.06-.41,0-.41,0,0-.54-.25-1.17.55-1.38Z" transform="translate(-232.33 -56.99)"/><path class="a" d="M451.73,330.79a3.34,3.34,0,0,1-.29,1.12c-.12.16-.67.64-.82-.05a1.74,1.74,0,0,1,.31-1.06C451,330.7,451.38,330.79,451.73,330.79Z" transform="translate(-232.33 -56.99)"/><path class="a" d="M401.33,320.61a5.08,5.08,0,0,1-1-.32c.06-.66.52-.39.89-.3C401.24,320.2,401.29,320.4,401.33,320.61Z" transform="translate(-232.33 -56.99)"/><path class="a" d="M402.7,320.47l-1.37.14c0-.21-.09-.41-.14-.62l1.23-.32A5.84,5.84,0,0,0,402.7,320.47Z" transform="translate(-232.33 -56.99)"/><path class="a" d="M335.52,281.85c-.54,0-.73-.23-.55-.72,0-.11.24-.16.36-.24l.06,1Z" transform="translate(-232.33 -56.99)"/><path class="a" d="M402.42,319.67c.4-.24.89-.84,1.2-.05s-.44.74-.92.85A5.84,5.84,0,0,1,402.42,319.67Z" transform="translate(-232.33 -56.99)"/><path class="a" d="M335.17,278.69c.51.06.71.33.51.81-.05.1-.26.13-.39.19,0-.34,0-.69,0-1Z" transform="translate(-232.33 -56.99)"/><path class="a" d="M406.65,319.54c-.61.25-1.39.8-1.69-.2-.2-.66.53-.77,1.09-.76Z" transform="translate(-232.33 -56.99)"/><path class="a" d="M406.05,318.58l1.2-.42c0,.41,0,.82,0,1.22a1.33,1.33,0,0,1-.59.16Z" transform="translate(-232.33 -56.99)"/><path class="a" d="M335,274.81c-.08-.47-.51-1.19.29-1.24s.42.64.31,1.08Z" transform="translate(-232.33 -56.99)"/><path class="a" d="M462.49,343.62l-1-.23c.17-.62.54-.29.87-.19Z" transform="translate(-232.33 -56.99)"/><path class="a" d="M263.28,315.4c-.47,0-.71-.24-.59-.72,0-.09.23-.14.35-.21l.12,1Z" transform="translate(-232.33 -56.99)"/><path class="a" d="M262.76,317.54c.44-.11.7,0,.68.52,0,.1-.17.19-.27.28-.09-.28-.18-.57-.28-.85Z" transform="translate(-232.33 -56.99)"/><path class="a" d="M262.93,320.34l-.14-.26.47-.23c0,.13.12.3.06.39S263.07,320.3,262.93,320.34Z" transform="translate(-232.33 -56.99)"/><path class="a" d="M263.36,304.9c0,.39,0,.78,0,1.16,0,0-.27.06-.42.09l-.07-1.11Z" transform="translate(-232.33 -56.99)"/><path class="a" d="M263.28,313.13l-.42.09a2.76,2.76,0,0,1,.07-.65c0-.07.24-.08.37-.12Z" transform="translate(-232.33 -56.99)"/><path class="a" d="M281,674.92c0,6.79,0,13.44,0,20.08,0,16.06-.3,32.12,0,48.18.1,5.41-3.4,3-5.59,3.4-2.54.44-4.33.28-4.28-3.46.28-18.59.19-37.18.28-55.77C271.46,680.44,273.68,677.55,281,674.92Z" transform="translate(-232.33 -56.99)"/><path class="a" d="M509.54,689.6c-1.34,12.42-.71,23.94-3.31,35.2-.56-13.73-1.21-27.46-1.61-41.2a6.43,6.43,0,0,0-3.53-6c-7.87-4.71-16.09-8.91-22.94-15.24,10.48,5.59,21.6,9.76,32.2,15,3.63,1.79,5.14,5.25,5.14,9.27q0,29.24-.11,58.47c0,1.44.42,3-2.06,2.93s-1.57-1.86-1.57-2.91c0-16.67.35-33.33-.5-50C511.17,693.56,511.48,691.84,509.54,689.6Zm.4.55c.91-.26.5-.72.39-1a.82.82,0,0,0-.65-.35c-.51,0-.64.4-.39.79A2.52,2.52,0,0,0,509.94,690.15Z" transform="translate(-232.33 -56.99)"/><path class="a" d="M302.76,663.83c0,8.1,0,15.93-.12,23.75a4.13,4.13,0,0,1-.79,2,115.79,115.79,0,0,0-13.3,27.66A23.6,23.6,0,0,1,287,720c0-7,0-12.64,0-18.32,0-9.06.11-18.12.08-27.18,0-1.77.21-3,2.09-3.81C293.61,668.66,297.91,666.31,302.76,663.83Z" transform="translate(-232.33 -56.99)"/><path class="a" d="M426.68,568.46q0-32.72.08-65.45c.05-21.67.16-43.33.24-65.26C430.14,441.74,430.53,557.23,426.68,568.46Z" transform="translate(-232.33 -56.99)"/><path class="a" d="M411.32,638.54c18.4.46,34.71,5.9,47.39,20C444,649.36,428,643.2,411.32,638.54Z" transform="translate(-232.33 -56.99)"/><path class="a" d="M432.38,402.24c.75,1.2-.4,1.7-1.08,2.44.07-.75.13-1.5.2-2.25Z" transform="translate(-232.33 -56.99)"/><path class="a" d="M427.45,569.37c.15.36.38.68.31.77a5.56,5.56,0,0,1-.85.75c-.08-.22-.29-.5-.22-.63A5.74,5.74,0,0,1,427.45,569.37Z" transform="translate(-232.33 -56.99)"/><path class="a" d="M432.55,401c-.06.42-.11.85-.17,1.27l-.88.19,0-1.28Z" transform="translate(-232.33 -56.99)"/><path class="a" d="M324.08,78.63c1.57-1.61.73-3.66.87-5.49s.44-2.76,2.66-3.1c3.47-.52,4.54.35,4.43,4-.28,9.06-.19,18.13-.16,27.2,0,1.83,0,3-2.41,3.21a444.46,444.46,0,0,0-56.17,7.31,4.88,4.88,0,0,1-1.75-.36c2.83-3.22,3.4-28,.71-33.34C285,74.94,298,73.27,310.89,71.76a81.17,81.17,0,0,0,8.42-.92c3.6-.8,4.68.52,4.42,3.94-.09,1.23-.55,2.65.47,3.8,0,.32.06.63.1,1,.11-.09.28-.15.31-.25C324.75,78.82,324.57,78.58,324.08,78.63Zm-7.76-1.13.3-.71-.27.63c-.62,7.19-1.09,14.38.09,21.56l0,.79.44-.43-.59-.31A46.08,46.08,0,0,0,316.32,77.5Zm-35.93,6.7a56.56,56.56,0,0,0,0,17.52A53.1,53.1,0,0,0,280.39,84.2Zm44.05-2.48.08-.77c-.21,0-.57,0-.59.11a5.2,5.2,0,0,0-.12,1C324,82,324.23,81.86,324.44,81.72ZM280.29,103c-.09.06-.26.1-.27.17-.08.42.1.55.47.31.05,0,.07-.22,0-.31S280.37,103,280.29,103Z" transform="translate(-232.33 -56.99)"/><path class="a" d="M382.62,102c-8.68.24-17.36.58-26.05.68-3.49,0-8.1,2-10.15-.38-1.7-2-.45-6.54-.46-10,0-6.84.1-13.68,0-20.51,0-2.17.33-3.14,2.81-3.21,3-.09,2.1,1.9,2.14,3.29.14,4.87.14,9.75.2,15.13,2.53-3.22,1.73-6.72,2.11-9.87,1.08-8.75,1-8.79,10-9.07,6-.19,12-.31,18.33,0-5.45,3.26-6,8.19-5.76,13.52a55.14,55.14,0,0,1,0,6.68C375.33,94.22,376.05,99.43,382.62,102Z" transform="translate(-232.33 -56.99)"/><path class="a" d="M497.25,76.89a5.51,5.51,0,0,0-2.66,5.2c.13,6.24.05,12.49,0,18.74-.05,3.48.26,6.74,4.47,9.3-7.68-1.1-14.27-2.1-20.88-3-1.58-.2-1.8-1-1.94-2.33-.13-1.19.7-2.75-1.5-3.84,1.42,5.74-1.39,6.27-5.67,5.1a36.87,36.87,0,0,0-4.84-.7l-.32-1.12c3.53-1.85,5-4.76,4.92-8.74a108.69,108.69,0,0,1,.1-11.56c.45-5.81-1.07-10.31-6.91-13.12,7.77,1,15.55,2,23.32,3,2,.25,1.54,1.82,1.64,3.09L488,90.2c0,.48-.3,1.2.54,1.13s.44-.81.55-1.28a98.53,98.53,0,0,0,.71-11c-.15-3.86,1.23-5,4.77-3.85.84.26,1.7.44,2.55.65Zm-8.7,16.27-.05-.78c-.23.12-.6.18-.65.35a2.41,2.41,0,0,0,.09.91Z" transform="translate(-232.33 -56.99)"/><path class="a" d="M251.42,106.28c-2.08,2.7-.78,5.89-1.28,8.82-.21,1.25.39,2.84-1.26,3.51-1.09.44-2.54,1.62-2.52-1.12.1-9.67.06-19.34,0-29,0-1.42.77-2.09,1.92-2.69a67.19,67.19,0,0,1,11.91-4.62c0,10.8-.08,21.2,0,31.6a2.41,2.41,0,0,1-2.14,2.79c-2,.49-4,1.18-6.5,2-.1-3.91-.2-7.53-.31-11.14-.1-.61-.09-1.32-1.06-.89.21-.42,1-.56.61-1.27,0,0-.23,0-.23,0-.1.4-.18.8-.25,1.19C250.56,105.88,250.35,106.87,251.42,106.28Z" transform="translate(-232.33 -56.99)"/><path class="a" d="M519.08,114.5c4-4.32,3.39-29.12-1.27-33.9a58.85,58.85,0,0,1,14.53,5.16c.89.46.71,1.54.71,2.43,0,10.11-.06,20.21-.09,30.66Z" transform="translate(-232.33 -56.99)"/><path class="a" d="M450.86,98.24a39.24,39.24,0,0,1,.11-23.4A38.85,38.85,0,0,1,450.86,98.24Z" transform="translate(-232.33 -56.99)"/><path class="a" d="M518.33,85.33c.9,7.2,1.49,14.38-.34,21.51C517.38,99.66,517,92.47,518.33,85.33Z" transform="translate(-232.33 -56.99)"/><path class="a" d="M389.54,71.09a43.75,43.75,0,0,1,0,19.65l.13,0a40.25,40.25,0,0,1,0-19.66Z" transform="translate(-232.33 -56.99)"/><path class="a" d="M335.15,83.68c-.2-3.94-.42-7.88-.6-11.82-.05-1-.49-2.15,1.22-2.23s1.52,1.11,1.4,2.05C336.66,75.7,337.3,79.88,335.15,83.68Z" transform="translate(-232.33 -56.99)"/><path class="a" d="M263.05,93.36c-.24-3.79-.5-7.58-.71-11.37-.07-1.24.56-2.08,1.83-1.91s.81,1.38.77,2.13c-.17,3.66-.45,7.31-.69,11Z" transform="translate(-232.33 -56.99)"/><path class="a" d="M464.18,105.39a1.19,1.19,0,0,1-1.75-.56l1.43-.56C464,104.64,464.07,105,464.18,105.39Z" transform="translate(-232.33 -56.99)"/><path class="a" d="M389.66,71.06c-.7-.14-.51-.55-.27-.94.07-.11.26-.13.39-.19l-.24,1.16Z" transform="translate(-232.33 -56.99)"/><path class="a" d="M389.54,90.74c.54.17.58.54.31.93-.08.11-.39.06-.59.08.14-.34.28-.69.41-1Z" transform="translate(-232.33 -56.99)"/><path class="a" d="M263.9,95.21a1,1,0,0,1-.45,1.67l-.23-1.49Z" transform="translate(-232.33 -56.99)"/><path class="a" d="M497.1,75.88c.52,0,1.17-.11,1.15.69,0,.12-.65.22-1,.32Z" transform="translate(-232.33 -56.99)"/><path class="a" d="M263.22,95.39c-.06-.48-.5-1.21.31-1.28s.49.64.37,1.1Z" transform="translate(-232.33 -56.99)"/><path class="a" d="M368.38,406c1.36,3,2.4,6.08,4.5,8.69a5.29,5.29,0,0,0,5.08,2.16c2.23-.3,3.13-2,3.63-4a21.11,21.11,0,0,1,1.64-5.06,6.35,6.35,0,0,1,10.77-.64c4,5.41,4.66,16.92,1.26,22.7a7.82,7.82,0,0,1-7,4.08c-13,.4-15.91,2.66-19.84,15.27-.25.79-.24,1.78-1.61,2.16.15-15.06.31-30,.46-45Z" transform="translate(-232.33 -56.99)"/><path class="a" d="M375.05,524.11c-.81,1-1,2.17-2.11,2s-1.24-1.24-1.31-2.08a184.37,184.37,0,0,1,0-24.54c.05-1,.34-2.29,1.62-2.35.93,0,1.48,1,1.74,1.81A46.6,46.6,0,0,1,375.05,524.11Z" transform="translate(-232.33 -56.99)"/><path class="a" d="M375.34,490.87a2,2,0,0,1-2.64,1,2.06,2.06,0,1,1,1.77-3.71A2.09,2.09,0,0,1,375.34,490.87Z" transform="translate(-232.33 -56.99)"/><path class="a" d="M368.21,503.06q0-3.57,0-7.15c1.31,2.33,1,4.66.93,7Z" transform="translate(-232.33 -56.99)"/><path class="a" d="M368.33,492.68l-.07-.7a3,3,0,0,1,.71.31c.07,0,0,.28,0,.42Z" transform="translate(-232.33 -56.99)"/><path class="a" d="M369,494.36l-.15.26-.38-.41a1.13,1.13,0,0,1,.38-.1C368.94,494.12,369,494.28,369,494.36Z" transform="translate(-232.33 -56.99)"/><path class="a" d="M369.16,502.89c-.05.49.36,1.26-.46,1.33s-.6-.65-.49-1.16Z" transform="translate(-232.33 -56.99)"/><path class="a" d="M372.26,610.7c.24.29.66.64.1.92-.13.07-.57-.44-.86-.69A6.1,6.1,0,0,1,372.26,610.7Z" transform="translate(-232.33 -56.99)"/><path class="a" d="M367.93,506.31c0-.51-.34-1.28.51-1.38s.73.6.66,1.16Z" transform="translate(-232.33 -56.99)"/><path class="a" d="M367.31,406.38c-.22-.39-.39-.87.14-1,.24-.06.61.42.93.66Z" transform="translate(-232.33 -56.99)"/><path class="a" d="M316.71,705.77c25.14-42.8,79-56.94,121.62-31.93,42.4,24.87,56.29,79.09,31.2,121.86-24.56,41.89-79.29,55.94-121.26,31.14A88.49,88.49,0,0,1,316.71,705.77Zm101,124.15c.35-.11,1-.23,1-.31-.08-1-.71-.47-1.18-.39l-1.23.4-4.95,1.16-1.16.31-1.86.52-1.25.22c-1.32,0-2.73-.34-3.95,1.08,1.73.57,3,0,4.21-.27l1.13-.22,1.9-.53a.87.87,0,0,0,1.22-.32,7.59,7.59,0,0,0,4.89-1.34A.83.83,0,0,0,417.71,829.92Zm-.46-6.64c.71,1.17.95.33,1.25-.28,1,.94,1.72-.21,2.56-.4.22-.24.44-.47.65-.71-.14,0-.31-.17-.4-.12-.46.24-.45.59-.15,1-1.08-1.48-1.82-.3-2.64.33-.55-.42-.93-.2-1.22.33a.85.85,0,0,0-1.23.31,1.82,1.82,0,0,0-2.15,1c.74-.33,2.16,1,2.14-1.15l.71.56Zm9.88,2.64c.45.74.85.18,1.27-.06.8-.25,1.84-.26,1.63-1.55.38,1.22.83.34,1.26,0a1.12,1.12,0,0,0,1.27-.85s-.27-.28-.32-.25c-.5.26-1.07.48-.94,1.22-.4-1-.83-.31-1.26,0-.82.24-1.79.32-1.63,1.56-.45-1.22-.84-.43-1.24,0l-1,.23.21.38Zm-45.81-145.7,1.05.44.18-.75c.56,1.25,1.3.68,2,.21l3.85-.21c19.16-1.09,36.24,4.32,50.64,17.06,18.8,16.63,26.48,37.77,24.29,62.64,1.49-2.38,1.55-2.37,1.74-5.22,1.11-16.63-2.74-32.09-12.42-45.63-15.74-22-36.95-32.89-64.46-29.74-1.32,0-2.81-.59-3.64,1.07-.62-1.23-1.31-.46-2-.07a.77.77,0,0,0-1.22.32l-1,.25c.1.11.18.3.29.31C381.23,681,381.42,680.72,381.32,680.22Zm45.4,138.95c-.59.55-2,.45-1.42,1.91-.4-1.63-1.3-.23-2-.3a3.57,3.57,0,0,0-.15.59c.68-.14,1.36-.28,2-.44.78-.4,1.81-.6,1.51-1.85.06,1.15.75.63,1.29.5.74-.38,1.5-.74,1.6-1.71l.59.41.18-.56-.75.29c-.94.19-1.78.48-1.62,1.69C428,818.58,427.26,819.08,426.72,819.17Zm-18.05,6.38c.57,1.46,1.46.6,2.24.27a.86.86,0,0,0,.07-.64,2.1,2.1,0,0,0-2.25.48l-1.25.23-3.72.46-1.95.36-2.63.12c-34.13,1.31-58.92-13.46-74.78-43.52-1.13-2.14-2-4.41-3.17-6.88-.42.72-.71,1-.66,1.16.48,1.4.93,2.82,1.54,4.17,8.13,17.89,20.73,31.55,38.69,39.76,12.22,5.59,25.13,8,38.61,6.07l2.55-.06,1.89-.48c1.35.42,2.59-.18,3.86-.41C408.24,826.46,409.06,826.54,408.67,825.55Zm37.63-11.18a2.77,2.77,0,0,0-2,2.45c-3.79,0-5.52,3.31-8.29,5,2.76-1.7,5.52-3.4,8.27-5.14l1.95-2.42c.6.21,1.07.22.91-.65Zm-22,13.14c-1.1-1-1.76-.08-2.47.59a2.22,2.22,0,0,0-2.24.69s.33.52.47.49c.79-.12,1.75-.08,1.72-1.3,1.1,1,1.77.11,2.48-.57l1-.16-.38-.56Zm8.3-10.65,2.74-1.57c-1.22.12-2.45.28-2.72,1.7l-.58-.38-.18.51ZM311,763.79a7.16,7.16,0,0,0,1.39,5c.65-2.26,0-3.73-.44-5.22a99.44,99.44,0,0,1,1.5-37.69C309.46,738.33,308.15,750.93,311,763.79Zm25.86-46.38a65.27,65.27,0,0,0,23.34,89.43c30.93,18.16,71.15,7.81,89.27-23,18.45-31.35,8.39-71.39-22.53-89.68C395.22,675.45,355.55,685.67,336.86,717.41Zm67.23,115c-45.83,2.62-74.71-18.6-90.68-59.31C325.5,818.3,372,840.19,404.09,832.43Zm-87.16-70.28c.05-5.31-.48-10.57-.25-15.86.24-5.45,1.3-10.78,1.86-16.17A57.67,57.67,0,0,0,316.93,762.15Zm11.78-54.27c-5.51,7.78-8.32,13.7-8.39,18.47A89,89,0,0,1,328.71,707.88Zm-11.65,8.75c2.08-4.47,4.74-8.55,6.79-12.94C321.1,707.78,318.22,711.79,317.06,716.63Zm3.13,59.88,1.15-.46c-1.13-1.45-.25-4-3.19-4.73C318.88,773.19,319.54,774.85,320.19,776.51Zm-2.39-10.45c0-1.15.93-2.54-1.24-3.25C316.65,764.11,316.59,765.26,317.8,766.06Zm133.59,44.13.16-.36-.21.34Zm-2,1.57a1.22,1.22,0,0,0-.25.26,1.48,1.48,0,0,0-.1.36l.47-.52Zm-36.81,13.15c-.1.06-.26.1-.28.17-.09.43.08.55.46.32.06,0,.07-.22,0-.32S412.62,825,412.54,824.91Z" transform="translate(-232.33 -56.99)"/><path class="a" d="M399.65,846.06c37.31-6,65.34-24.75,79.72-60.31s7.56-68.46-15.29-98.26C480.43,693,494.53,740.56,488,771,477.43,819.7,435.09,846.09,399.65,846.06Z" transform="translate(-232.33 -56.99)"/><path class="a" d="M388,655.78a117.14,117.14,0,0,0-68.16,33c17.15-22.22,39.42-34.29,67.85-34.17Z" transform="translate(-232.33 -56.99)"/><path class="a" d="M390.6,846.21c1.64-.92,3.35-.14,5,0-1.68.86-3.37,1.35-5.08-.09Z" transform="translate(-232.33 -56.99)"/><path class="a" d="M398.44,846.77a6.27,6.27,0,0,1-1.37,0c-.19,0-.83-.6-.08-.89a3.77,3.77,0,0,1,1.66-.21C398.84,845.68,399.39,846.21,398.44,846.77Z" transform="translate(-232.33 -56.99)"/><path class="a" d="M387.67,654.62a1.23,1.23,0,0,1,1.82.63l-1.51.53Z" transform="translate(-232.33 -56.99)"/><path class="a" d="M386.18,846.08a2.06,2.06,0,0,1-.59.12c-.11,0-.23-.13-.31-.24-.27-.38-.16-.56.28-.4C385.78,845.64,385.94,845.88,386.18,846.08Z" transform="translate(-232.33 -56.99)"/><path class="a" d="M390.55,846.09c0,.39-.06.78-.58.64-.16-.05-.26-.35-.39-.53h1Z" transform="translate(-232.33 -56.99)"/><path class="a" d="M387.88,846.49l-.17-.27.46-.19.11.39Z" transform="translate(-232.33 -56.99)"/><path class="a" d="M411.07,866.76c-21.08,3.7-41.46,1.06-61.17-7a107.42,107.42,0,0,1-32.18-20.6c-5.73-5.27-5.76-5.24-5.13-14.13,21.75,22.39,47.83,34.22,78.67,35.19,0,.37.05.73.07,1.1-2.16,2.79.41,2.78,2,3.16,5.77,1.44,11.68.85,17.54,1C410.92,866,411,866.36,411.07,866.76Z" transform="translate(-232.33 -56.99)"/><path class="a" d="M280,763.12c1.24.77.91,1.78.9,2.59,0,20.67-.15,41.35-.12,62,0,2.31-.89,2.94-2.85,2.57-2.56-.48-6.6,1.63-6.77-3.35-.18-5.35,0-10.72,0-16.07,0-14.43.06-28.86.17-43.29,0-1.47-1.05-3.82,1-4.28C274.78,762.73,277.54,763.14,280,763.12Z" transform="translate(-232.33 -56.99)"/><path class="a" d="M485.71,830.26c4.74-.75,4.59-4.21,4.87-7.55.35-4.23.93-8.44,1.4-12.66l1.11,0c.48,4.43.89,8.87,1.51,13.28.21,1.5-.59,3.77,1.23,4.34a5.91,5.91,0,0,0,5.75-1.72c5.44-5.3,8.71-11.55,8.71-19.37,0-13.53.15-27.07.3-40.6,0-1.13-.88-2.83,1.34-3.1s3.45-.07,3.4,2.88c-.21,12.34-.09,24.69-.11,37,0,7.73-.14,15.47,0,23.2,0,3.44-1.24,4.79-4.74,4.7-7.58-.18-15.17-.06-22.75-.09A12.29,12.29,0,0,1,485.71,830.26Z" transform="translate(-232.33 -56.99)"/><path class="a" d="M288.22,782.88c3.13,8.87,6.75,17.5,11.85,25.46a5.81,5.81,0,0,1,1,3.35c-.09,5.36-.15,10.72,0,16.08,0,1.94-.48,2.83-2.47,2.57a2.26,2.26,0,0,0-.45,0c-11.38.49-11.42.49-11.38-11,0-12.06.2-24.11.31-36.16Z" transform="translate(-232.33 -56.99)"/><path class="a" d="M410.81,860.14c17.09-4.24,32.62-9.82,46.73-20C454.4,850.46,423.74,863.6,410.81,860.14Z" transform="translate(-232.33 -56.99)"/><path class="a" d="M506.06,798.37c-.33-11.15-.67-21.93-.94-32.71,0-1.1-.92-2.77,1.48-2.87,2-.08,2.1,1,2,2.5q-.56,15.11-1.07,30.22A3.31,3.31,0,0,1,506.06,798.37Z" transform="translate(-232.33 -56.99)"/><path class="a" d="M304.33,815.44c5.29,4.16,3.27,9.22,3.6,13.73.09,1.24-1,1.1-1.93,1.18-1.42.13-1.76-.53-1.74-1.82C304.33,824.39,304.31,820.26,304.33,815.44Z" transform="translate(-232.33 -56.99)"/><path class="a" d="M413.63,866.43l-2.56.33c-.08-.4-.15-.81-.23-1.21l2.56,0Z" transform="translate(-232.33 -56.99)"/><path class="a" d="M483.7,830l-.33-.84a4.62,4.62,0,0,1,1.19.12c.17.07.21.47.31.72Z" transform="translate(-232.33 -56.99)"/><path class="a" d="M287,783.23c0-.79-1-1.86.64-2.15l-.1,0c.7.4.61,1.1.65,1.75Z" transform="translate(-232.33 -56.99)"/><path class="a" d="M415.45,865.86l-1.82.57c-.08-.31-.15-.61-.23-.91a1.75,1.75,0,0,1,1.91-.14C415.36,865.54,415.4,865.7,415.45,865.86Z" transform="translate(-232.33 -56.99)"/><path class="a" d="M287.67,781.08c-.47.12-.73-.05-.7-.55,0-.1.18-.2.28-.3l.32.9Z" transform="translate(-232.33 -56.99)"/><path class="a" d="M415.31,865.38c.36,0,.71,0,1.07,0,0,0,.07.25.1.38l-1,.1C415.4,865.7,415.36,865.54,415.31,865.38Z" transform="translate(-232.33 -56.99)"/><path class="a" d="M391.26,860.24c.36.09,1,.12,1.05.28.15.73-.39.85-1,.82C391.31,861,391.28,860.61,391.26,860.24Z" transform="translate(-232.33 -56.99)"/><path class="a" d="M492.93,808.75l-.54.29c0-.12-.13-.31-.09-.36a2.89,2.89,0,0,1,.51-.31Z" transform="translate(-232.33 -56.99)"/><path class="a" d="M272.59,193.12c.9-5.3,2.63-10.35-.85-15.34,19.05-4.22,38.36-6.49,57.78-8,1.93-.15,2.26.56,2.23,2.18-.07,3.71-.17,7.43,0,11.14.08,2-.8,2.47-2.56,2.6A465,465,0,0,0,272.59,193.12Zm7.62-5.63c.81-2.07,1.27-4.08-.09-6.56A7.06,7.06,0,0,0,280.21,187.49Z" transform="translate(-232.33 -56.99)"/><path class="a" d="M382.6,167.55c-8.82,6.52-8.66,10.32-.1,15.45-3.23,1.05-6.27.42-9.23.55-8,.34-16.06.41-24.07.93-3.05.2-3.79-.73-3.58-3.55a83.51,83.51,0,0,0,.05-9.36c-.08-1.95.25-3,2.56-3.08s2.32,1,2.45,2.64c.12,1.29-.23,2.7.71,3.87.26-.11.66-.16.7-.31,1.88-6.47,1.88-6.5,8.94-6.68C367.85,167.83,374.67,167.72,382.6,167.55Z" transform="translate(-232.33 -56.99)"/><path class="a" d="M463.18,185.8c7.77-4.9,7.07-9.51-3.23-15.27l25.2,3.07c3.34.4,1.07,4,3.33,5.41.6-6.23,4.3-4.58,8-3.22-3.24,4.79-2.5,9.68-.74,14.91l-32.24-4Z" transform="translate(-232.33 -56.99)"/><path class="a" d="M250.17,197.88c-.25,2.17-2,2.24-3.95,2.7,0-4.09,0-8.05-.08-12,0-1.82,1-2.62,2.43-3.29a56,56,0,0,1,11.37-4.15c0,4.56.13,8.92,0,13.26-.08,2.48-6.08,4.49-9,3.15.32-.69-.14-1.36-.62-1.24C249,196.6,250.26,197.33,250.17,197.88Z" transform="translate(-232.33 -56.99)"/><path class="a" d="M518.83,195.77c3.19-2.73,3.55-9.8.89-14.79,1,.22,1.85.33,2.69.61,11.08,3.64,11.77,4.82,10.43,16.53-.24,2.12-.93,2-2.53,1.39C526.69,198.21,523,197.11,518.83,195.77Z" transform="translate(-232.33 -56.99)"/><path class="a" d="M389.29,168.47c1.39,4.06,1.2,7,0,9.86C388.06,175.42,388.11,172.52,389.29,168.47Z" transform="translate(-232.33 -56.99)"/><path class="a" d="M518.05,184.33c1.73,3.49,1.3,6,.45,9.33C516.77,190.33,517.27,187.77,518.05,184.33Z" transform="translate(-232.33 -56.99)"/><path class="a" d="M335.93,176.34c-2-1.59-.87-4-1.54-6-.26-.75.4-1.35,1.35-1.25s1.16.81,1,1.59c-.29,1.89-.65,3.78-1,5.67Z" transform="translate(-232.33 -56.99)"/><path class="a" d="M263.78,186.89c-1.23-2.78-2.17-4.73-.92-6.8.16-.27,1-.12,1.58-.16C264.24,182,264.05,184.06,263.78,186.89Z" transform="translate(-232.33 -56.99)"/><path class="a" d="M335.8,176.36a5.85,5.85,0,0,1,.07.72s-.18.07-.27.11c.1-.28.21-.57.32-.85Z" transform="translate(-232.33 -56.99)"/><path class="a" d="M463.46,186.72c-.52.28-1,.33-1.17-.37,0-.11.57-.36.89-.55C463.27,186.11,463.37,186.42,463.46,186.72Z" transform="translate(-232.33 -56.99)"/><path class="a" d="M271.71,137.13c16.77-3.88,33.75-5.9,50.8-7.51,9.29-.88,9.29-.84,9.31,8.38,0,6.73,0,6.75-6.67,7.29a435.64,435.64,0,0,0-49.59,6.58c-1,.19-2,.65-3,.14C273.82,147.11,275.25,142.23,271.71,137.13Zm8.54,10.42c1.06-3.27,1.12-5.48.11-8.33C279.09,142.11,279.28,144.34,280.25,147.55Zm36.62-5.71c.5-3,.94-5.09-.33-7.19C315.85,136.79,315.21,138.93,316.87,141.84Z" transform="translate(-232.33 -56.99)"/><path class="a" d="M381.72,127.77c-5.71,3.86-7,6.65-4.65,10.24,1.16,1.81,3.21,2.57,5.23,4.59-5.25.13-9.91.22-14.56.37-6.38.21-12.77.38-19.15.75-2.1.12-2.94-.33-2.83-2.59.16-3.41.08-6.83,0-10.24,0-1.76,0-3,2.43-3.18,2.62-.15,2.42,1.37,2.57,3,.1,1.13-.26,2.38.63,3.35a4.79,4.79,0,0,0,.78-.1c-.07-6.64,4.14-7,9.31-6.8,6.66.24,13.35-.11,20-.2C381.58,127.24,381.64,127.51,381.72,127.77ZM352,135c-.35.11-.76.13-.81.28a5.71,5.71,0,0,0-.13,1.19c.25-.1.62-.13.71-.3A4.41,4.41,0,0,0,352,135Z" transform="translate(-232.33 -56.99)"/><path class="a" d="M497.1,135.67c-3.62,3.24-3.79,9.05-.39,14.8-10.63-1.73-21.2-3.34-31.86-4.22-1.14-.09-2.45.17-2.93-1.36h0a6.28,6.28,0,0,0,6.29-5.27c1.16-5-3.14-6.71-7.42-9.74,8.9,1.08,16.54,1.78,24.09,3,4.06.67,1.66,4.72,3.11,7.3.25.2.42-.47.51-.7,2.27-5.84,2.26-5.84,8.44-4.64A2.72,2.72,0,0,0,497.1,135.67Z" transform="translate(-232.33 -56.99)"/><path class="a" d="M260.07,140.34c0,4.58-.14,8.88,0,13.17.1,3.38-2.78,2.46-4.39,3.22-2.85,1.34-6.57.19-9.38,3,0-4.08,0-8.15,0-12.23,0-1.45.76-2.09,1.9-2.68A55.24,55.24,0,0,1,260.07,140.34Z" transform="translate(-232.33 -56.99)"/><path class="a" d="M519.87,140.12a4.54,4.54,0,0,1,.8.1c12.78,4.75,12.78,4.75,12,19.08-4-1.21-7.82-2.37-11.66-3.59-.78-.24-1.49-.31-.76-1.73C522.55,149.55,521.85,145,519.87,140.12Z" transform="translate(-232.33 -56.99)"/><path class="a" d="M389.55,138.16a10.61,10.61,0,0,1-.09-9.43C391.06,132.18,390.37,135.14,389.55,138.16Z" transform="translate(-232.33 -56.99)"/><path class="a" d="M335.22,135.81c-.26-2-.49-3.82-.74-5.63-.14-1,0-1.71,1.3-1.65s1.28.87,1,1.78C336.32,132.07,337,134.16,335.22,135.81Z" transform="translate(-232.33 -56.99)"/><path class="a" d="M450.84,140.9a11.8,11.8,0,0,1-.17-9C452.18,135,452,137.41,450.84,140.9Z" transform="translate(-232.33 -56.99)"/><path class="a" d="M497,134.87l1,.46-.84.34A2.72,2.72,0,0,1,497,134.87Z" transform="translate(-232.33 -56.99)"/><path class="a" d="M461.92,144.89l.41.7-.43.14c0-.28.05-.56.07-.84Z" transform="translate(-232.33 -56.99)"/><path class="a" d="M381.52,127c.34.1,1,.16,1,.32.08.55-.37.54-.78.47C381.64,127.51,381.58,127.24,381.52,127Z" transform="translate(-232.33 -56.99)"/><path class="a" d="M383.17,142.48c-.15,0-.33.1-.41,0s-.09-.26-.12-.39c.14,0,.32-.1.41,0S383.13,142.35,383.17,142.48Z" transform="translate(-232.33 -56.99)"/></svg>